<svg xmlns="http://www.w3.org/2000/svg" width="36" height="36" viewBox="0 0 36 36">
  <defs>
    <style>
      .fill {
        fill: #6e6e6e;
      }
    </style>
  </defs>
  <title>S_ShareForReview_18_N@2x</title>
  <path class="fill" d="M8.5,12h19a.5.5,0,0,1,.5.5v1a.5.5,0,0,1-.5.5H8.5a.5.5,0,0,1-.5-.5v-1A.5.5,0,0,1,8.5,12Zm0,6h19a.5.5,0,0,1,.5.5v1a.5.5,0,0,1-.5.5H8.5a.5.5,0,0,1-.5-.5v-1A.5.5,0,0,1,8.5,18ZM33,4H3A1,1,0,0,0,2,5V27a1,1,0,0,0,1,1H8v6.793a.5.5,0,0,0,.854.353L16,28H33a1,1,0,0,0,1-1V5A1,1,0,0,0,33,4ZM32,26H15.912a1,1,0,0,0-.7.29L10,31.455V27a1,1,0,0,0-1-1H4V6H32Z"/>
</svg>
